<svg width="368" height="195" viewBox="0 0 368 195" fill="none" xmlns="http://www.w3.org/2000/svg">
<g filter="url(#filter0_d_374_8430)">
<path d="M-24 107.232C-12.3443 114.409 14.7399 126.014 29.831 115.02C48.6948 101.277 49.615 79.7476 74 67.8375C98.385 55.9275 126.384 76.732 138.873 83.4123C152.323 90.6063 193.164 91.6578 204.207 56.3857C208.229 43.5354 232.217 43.8895 238.253 63.2569C244.535 83.4123 277.822 78.3735 291.624 46.3079C305.427 14.2423 327.972 17.9069 335.333 24.3201C343.431 29.4505 360.485 41.1163 368 46.3079" stroke="url(#paint0_linear_374_8430)" stroke-width="4"/>
</g>
<g filter="url(#filter1_d_374_8430)">
<path d="M-24 98.7445C-12.3443 105.921 14.7399 117.526 29.831 106.532C48.6948 92.7895 64.6623 110.655 89.0472 98.7445C113.432 86.8344 120.411 51.2522 134.575 51.2522C158.882 51.2522 178.338 106.043 211.74 90.2207C233.732 79.8035 237.642 81.8263 256.11 90.2207C281.575 101.795 283.644 61.2996 291.624 37.82C302.795 4.95305 333.245 36.7367 340.606 43.1498C348.704 48.2802 360.485 32.6284 368 37.82" stroke="url(#paint1_linear_374_8430)" stroke-width="4" shape-rendering="crispEdges"/>
</g>
<rect x="225.559" y="45.4648" width="28.5512" height="148.157" fill="url(#paint2_linear_374_8430)"/>
<rect x="70" y="46" width="28.5512" height="148.157" fill="url(#paint3_linear_374_8430)"/>
<circle cx="240.221" cy="83.8184" r="6.25984" fill="#FCCB93" stroke="white" stroke-width="6"/>
<circle cx="84.1505" cy="63.9512" r="6.25984" fill="#FCCB93" stroke="white" stroke-width="6"/>
<path d="M17 148H350.354" stroke="url(#paint4_radial_374_8430)"/>
<path d="M25.2 165.89V165.43L26.18 165.21V165.88C26.18 166.333 26.29 166.673 26.51 166.9C26.73 167.127 27.0267 167.24 27.4 167.24C27.76 167.24 28.0433 167.127 28.25 166.9C28.4567 166.673 28.56 166.357 28.56 165.95V160.91H29.54V165.88C29.54 166.52 29.3433 167.06 28.95 167.5C28.5633 167.933 28.05 168.15 27.41 168.15C26.7233 168.15 26.1833 167.947 25.79 167.54C25.3967 167.127 25.2 166.577 25.2 165.89ZM35.8491 168L35.0791 166.02H31.9391L31.1891 168H30.1391L32.9591 160.91H34.0891L36.9091 168H35.8491ZM33.4991 161.93L32.2891 165.11H34.7291L33.4991 161.93ZM43.7417 168H42.7217L38.8917 162.22V168H37.9117V160.91H39.2217L42.7617 166.35V160.91H43.7417V168Z" fill="#79797D"/>
<path d="M77.8087 168H76.8287V160.91H81.1387V161.82H77.8087V164.1H80.8287V165.02H77.8087V168ZM86.6465 168H82.3365V160.91H86.6465V161.82H83.3165V164H86.3365V164.92H83.3165V167.09H86.6465V168ZM88.1471 160.91H90.4571C91.1171 160.91 91.6371 161.087 92.0171 161.44C92.4037 161.793 92.5971 162.257 92.5971 162.83C92.5971 163.197 92.5004 163.513 92.3071 163.78C92.1137 164.047 91.8571 164.24 91.5371 164.36C91.9304 164.46 92.2404 164.67 92.4671 164.99C92.7004 165.303 92.8171 165.663 92.8171 166.07C92.8171 166.63 92.6137 167.093 92.2071 167.46C91.8004 167.82 91.2737 168 90.6271 168H88.1471V160.91ZM89.1271 164.01H90.3471C90.7337 164.01 91.0404 163.907 91.2671 163.7C91.4937 163.487 91.6071 163.213 91.6071 162.88C91.6071 162.54 91.4904 162.27 91.2571 162.07C91.0237 161.87 90.7071 161.77 90.3071 161.77H89.1271V164.01ZM89.1271 167.14H90.4871C90.8871 167.14 91.2071 167.037 91.4471 166.83C91.6937 166.623 91.8171 166.35 91.8171 166.01C91.8171 165.657 91.7071 165.377 91.4871 165.17C91.2671 164.957 90.9471 164.85 90.5271 164.85H89.1271V167.14Z" fill="#79797D"/>
<path d="M135.418 168H134.448V162.48L132.028 168H131.128L128.728 162.48V168H127.758V160.91H129.088L131.588 166.68L134.108 160.91H135.418V168ZM142.131 168L141.361 166.02H138.221L137.471 168H136.421L139.241 160.91H140.371L143.191 168H142.131ZM139.781 161.93L138.571 165.11H141.011L139.781 161.93ZM147.864 168L146.244 165.1H145.184V168H144.194V160.91H146.864C147.517 160.91 148.041 161.113 148.434 161.52C148.834 161.92 149.034 162.42 149.034 163.02C149.034 163.533 148.881 163.973 148.574 164.34C148.267 164.7 147.847 164.93 147.314 165.03L149.004 168H147.864ZM145.184 164.22H146.684C147.084 164.22 147.407 164.113 147.654 163.9C147.901 163.68 148.024 163.387 148.024 163.02C148.024 162.647 147.901 162.35 147.654 162.13C147.407 161.903 147.084 161.79 146.684 161.79H145.184V164.22Z" fill="#79797D"/>
<path d="M185.913 168L185.143 166.02H182.003L181.253 168H180.203L183.023 160.91H184.153L186.973 168H185.913ZM183.563 161.93L182.353 165.11H184.793L183.563 161.93ZM188.955 164.22H190.375C190.795 164.22 191.129 164.113 191.375 163.9C191.622 163.68 191.745 163.387 191.745 163.02C191.745 162.647 191.622 162.35 191.375 162.13C191.129 161.903 190.795 161.79 190.375 161.79H188.955V164.22ZM190.555 165.1H188.955V168H187.975V160.91H190.555C191.202 160.91 191.729 161.11 192.135 161.51C192.542 161.91 192.745 162.41 192.745 163.01C192.745 163.617 192.542 164.117 192.135 164.51C191.729 164.903 191.202 165.1 190.555 165.1ZM197.612 168L195.992 165.1H194.932V168H193.942V160.91H196.612C197.265 160.91 197.789 161.113 198.182 161.52C198.582 161.92 198.782 162.42 198.782 163.02C198.782 163.533 198.629 163.973 198.322 164.34C198.015 164.7 197.595 164.93 197.062 165.03L198.752 168H197.612ZM194.932 164.22H196.432C196.832 164.22 197.155 164.113 197.402 163.9C197.649 163.68 197.772 163.387 197.772 163.02C197.772 162.647 197.649 162.35 197.402 162.13C197.155 161.903 196.832 161.79 196.432 161.79H194.932V164.22Z" fill="#79797D"/>
<path d="M230.46 165.89V165.43L231.44 165.21V165.88C231.44 166.333 231.55 166.673 231.77 166.9C231.99 167.127 232.286 167.24 232.66 167.24C233.02 167.24 233.303 167.127 233.51 166.9C233.716 166.673 233.82 166.357 233.82 165.95V160.91H234.8V165.88C234.8 166.52 234.603 167.06 234.21 167.5C233.823 167.933 233.31 168.15 232.67 168.15C231.983 168.15 231.443 167.947 231.05 167.54C230.656 167.127 230.46 166.577 230.46 165.89ZM240.782 167.47C240.308 167.923 239.698 168.15 238.952 168.15C238.205 168.15 237.592 167.923 237.112 167.47C236.638 167.017 236.402 166.387 236.402 165.58V160.91H237.372V165.55C237.372 166.09 237.508 166.507 237.782 166.8C238.062 167.093 238.452 167.24 238.952 167.24C239.452 167.24 239.838 167.093 240.112 166.8C240.385 166.507 240.522 166.09 240.522 165.55V160.91H241.502V165.58C241.502 166.387 241.262 167.017 240.782 167.47ZM249.031 168H248.011L244.181 162.22V168H243.201V160.91H244.511L248.051 166.35V160.91H249.031V168Z" fill="#79797D"/>
<path d="M280.617 165.89V165.43L281.597 165.21V165.88C281.597 166.333 281.707 166.673 281.927 166.9C282.147 167.127 282.444 167.24 282.817 167.24C283.177 167.24 283.46 167.127 283.667 166.9C283.874 166.673 283.977 166.357 283.977 165.95V160.91H284.957V165.88C284.957 166.52 284.76 167.06 284.367 167.5C283.98 167.933 283.467 168.15 282.827 168.15C282.14 168.15 281.6 167.947 281.207 167.54C280.814 167.127 280.617 166.577 280.617 165.89ZM290.939 167.47C290.465 167.923 289.855 168.15 289.109 168.15C288.362 168.15 287.749 167.923 287.269 167.47C286.795 167.017 286.559 166.387 286.559 165.58V160.91H287.529V165.55C287.529 166.09 287.665 166.507 287.939 166.8C288.219 167.093 288.609 167.24 289.109 167.24C289.609 167.24 289.995 167.093 290.269 166.8C290.542 166.507 290.679 166.09 290.679 165.55V160.91H291.659V165.58C291.659 166.387 291.419 167.017 290.939 167.47ZM297.688 168H293.358V160.91H294.338V167.08H297.688V168Z" fill="#79797D"/>
<path d="M330.211 168L329.441 166.02H326.301L325.551 168H324.501L327.321 160.91H328.451L331.271 168H330.211ZM327.861 161.93L326.651 165.11H329.091L327.861 161.93ZM336.408 167.47C335.934 167.923 335.324 168.15 334.578 168.15C333.831 168.15 333.218 167.923 332.738 167.47C332.264 167.017 332.028 166.387 332.028 165.58V160.91H332.998V165.55C332.998 166.09 333.134 166.507 333.408 166.8C333.688 167.093 334.078 167.24 334.578 167.24C335.078 167.24 335.464 167.093 335.738 166.8C336.011 166.507 336.148 166.09 336.148 165.55V160.91H337.128V165.58C337.128 166.387 336.888 167.017 336.408 167.47ZM344.967 168H344.177L344.087 167C343.913 167.313 343.63 167.583 343.237 167.81C342.843 168.037 342.37 168.15 341.817 168.15C341.21 168.15 340.65 168.013 340.137 167.74C339.623 167.46 339.2 167.033 338.867 166.46C338.54 165.887 338.377 165.217 338.377 164.45C338.377 163.683 338.55 163.013 338.897 162.44C339.243 161.867 339.677 161.443 340.197 161.17C340.723 160.897 341.287 160.76 341.887 160.76C342.647 160.76 343.307 160.957 343.867 161.35C344.433 161.737 344.82 162.253 345.027 162.9L344.137 163.28C343.977 162.767 343.697 162.37 343.297 162.09C342.903 161.803 342.433 161.66 341.887 161.66C341.2 161.66 340.61 161.903 340.117 162.39C339.623 162.877 339.377 163.563 339.377 164.45C339.377 165.343 339.617 166.037 340.097 166.53C340.583 167.017 341.167 167.26 341.847 167.26C342.22 167.26 342.55 167.2 342.837 167.08C343.13 166.96 343.357 166.803 343.517 166.61C343.683 166.41 343.807 166.21 343.887 166.01C343.973 165.81 344.023 165.61 344.037 165.41H341.577V164.53H344.967V168Z" fill="#79797D"/>
<path fill-rule="evenodd" clip-rule="evenodd" d="M221.07 50.8672C217.757 50.8672 215.07 53.5535 215.07 56.8672V64.1585C215.07 67.4722 217.757 70.1585 221.07 70.1585H235.451C235.502 70.2356 235.565 70.3083 235.642 70.3745L238.288 72.6425C238.685 72.9825 239.277 72.9598 239.646 72.5903L241.914 70.3223C241.966 70.2705 242.011 70.2156 242.048 70.1585H255.37C258.683 70.1585 261.37 67.4722 261.37 64.1585V56.8672C261.37 53.5535 258.683 50.8672 255.37 50.8672H221.07Z" fill="#004DAF"/>
<path fill-rule="evenodd" clip-rule="evenodd" d="M66 30C62.6863 30 60 32.6863 60 36V43.2913C60 46.605 62.6863 49.2913 66 49.2913H80.3806C80.4314 49.3684 80.495 49.4412 80.5721 49.5073L83.2182 51.7753C83.6149 52.1154 84.2066 52.0926 84.5761 51.7231L86.8441 49.4551C86.8959 49.4033 86.9405 49.3484 86.9781 49.2913H100.299C103.613 49.2913 106.299 46.605 106.299 43.2913V36C106.299 32.6863 103.613 30 100.299 30H66Z" fill="#00A685"/>
<defs>
<filter id="filter0_d_374_8430" x="-39.0488" y="0" width="422.186" height="131.543" filterUnits="userSpaceOnUse" color-interpolation-filters="sRGB">
<feFlood flood-opacity="0" result="BackgroundImageFix"/>
<feColorMatrix in="SourceAlpha" type="matrix" values="0 0 0 0 0 0 0 0 0 0 0 0 0 0 0 0 0 0 127 0" result="hardAlpha"/>
<feOffset dy="-4"/>
<feGaussianBlur stdDeviation="7"/>
<feColorMatrix type="matrix" values="0 0 0 0 0 0 0 0 0 0.92549 0 0 0 0 0.737255 0 0 0 0.7 0"/>
<feBlend mode="normal" in2="BackgroundImageFix" result="effect1_dropShadow_374_8430"/>
<feBlend mode="normal" in="SourceGraphic" in2="effect1_dropShadow_374_8430" result="shape"/>
</filter>
<filter id="filter1_d_374_8430" x="-39.0488" y="3.16797" width="422.186" height="119.887" filterUnits="userSpaceOnUse" color-interpolation-filters="sRGB">
<feFlood flood-opacity="0" result="BackgroundImageFix"/>
<feColorMatrix in="SourceAlpha" type="matrix" values="0 0 0 0 0 0 0 0 0 0 0 0 0 0 0 0 0 0 127 0" result="hardAlpha"/>
<feOffset dy="-4"/>
<feGaussianBlur stdDeviation="7"/>
<feComposite in2="hardAlpha" operator="out"/>
<feColorMatrix type="matrix" values="0 0 0 0 0 0 0 0 0 0.301961 0 0 0 0 0.686275 0 0 0 0.7 0"/>
<feBlend mode="normal" in2="BackgroundImageFix" result="effect1_dropShadow_374_8430"/>
<feBlend mode="normal" in="SourceGraphic" in2="effect1_dropShadow_374_8430" result="shape"/>
</filter>
<linearGradient id="paint0_linear_374_8430" x1="340.22" y1="28.874" x2="4.55118" y2="124.945" gradientUnits="userSpaceOnUse">
<stop stop-color="#00ECBC" stop-opacity="0"/>
<stop offset="0.122203" stop-color="#00ECBC" stop-opacity="0.8"/>
<stop offset="0.501015" stop-color="#00ECBC"/>
<stop offset="0.926132" stop-color="#00ECBC" stop-opacity="0.8"/>
<stop offset="1" stop-color="#00ECBC" stop-opacity="0"/>
</linearGradient>
<linearGradient id="paint1_linear_374_8430" x1="339.063" y1="38.52" x2="0.6929" y2="137.677" gradientUnits="userSpaceOnUse">
<stop stop-color="#004DAF" stop-opacity="0"/>
<stop offset="0.084027" stop-color="#004DAF"/>
<stop offset="0.643955" stop-color="#004DAF"/>
<stop offset="1" stop-color="#004DAF" stop-opacity="0"/>
</linearGradient>
<linearGradient id="paint2_linear_374_8430" x1="239.834" y1="45.4648" x2="239.834" y2="193.622" gradientUnits="userSpaceOnUse">
<stop stop-opacity="0"/>
<stop offset="0.480673" stop-color="#004DAF" stop-opacity="0.23"/>
<stop offset="1" stop-opacity="0"/>
</linearGradient>
<linearGradient id="paint3_linear_374_8430" x1="84.2756" y1="46" x2="84.2756" y2="194.157" gradientUnits="userSpaceOnUse">
<stop stop-opacity="0"/>
<stop offset="0.480673" stop-color="#00ECBC" stop-opacity="0.23"/>
<stop offset="1" stop-opacity="0"/>
</linearGradient>
<radialGradient id="paint4_radial_374_8430" cx="0" cy="0" r="1" gradientUnits="userSpaceOnUse" gradientTransform="translate(183.677 148.5) rotate(90) scale(0.5 166.677)">
<stop stop-color="#C7C7C7"/>
<stop offset="1" stop-color="#E4E4E4" stop-opacity="0"/>
</radialGradient>
</defs>
</svg>
